<svg width="19" height="20" viewBox="0 0 19 20" fill="none" xmlns="http://www.w3.org/2000/svg">
<path d="M7.00001 17.9999C7.26523 17.9999 7.51958 18.1053 7.70712 18.2928C7.89465 18.4804 8.00001 18.7347 8.00001 18.9999C8.00001 19.2652 7.89465 19.5195 7.70712 19.7071C7.51958 19.8946 7.26523 19.9999 7.00001 19.9999C6.73479 19.9999 6.48044 19.8946 6.2929 19.7071C6.10537 19.5195 6.00001 19.2652 6.00001 18.9999C6.00001 18.7347 6.10537 18.4804 6.2929 18.2928C6.48044 18.1053 6.73479 17.9999 7.00001 17.9999ZM14 17.9999C14.2652 17.9999 14.5196 18.1053 14.7071 18.2928C14.8947 18.4804 15 18.7347 15 18.9999C15 19.2652 14.8947 19.5195 14.7071 19.7071C14.5196 19.8946 14.2652 19.9999 14 19.9999C13.7348 19.9999 13.4804 19.8946 13.2929 19.7071C13.1054 19.5195 13 19.2652 13 18.9999C13 18.7347 13.1054 18.4804 13.2929 18.2928C13.4804 18.1053 13.7348 17.9999 14 17.9999ZM1.49501 0.630944L1.60001 0.700944L3.30801 1.98094C3.59867 2.19904 3.82442 2.4922 3.96101 2.82894L4.02101 2.99994H16.867C17.1381 2.99988 17.4064 3.05493 17.6556 3.16175C17.9048 3.26858 18.1296 3.42495 18.3165 3.62136C18.5033 3.81777 18.6483 4.05012 18.7426 4.3043C18.8369 4.55848 18.8786 4.82918 18.865 5.09994L18.852 5.24794L18.395 8.90294C18.2579 10.0029 17.7591 11.026 16.9771 11.8116C16.1951 12.5972 15.1743 13.1007 14.075 13.2429L13.849 13.2659L6.53601 13.8759L6.79601 14.9999H15.5C15.7549 15.0002 16 15.0978 16.1854 15.2728C16.3707 15.4478 16.4822 15.6869 16.4972 15.9413C16.5121 16.1958 16.4293 16.4463 16.2657 16.6418C16.1022 16.8372 15.8701 16.9628 15.617 16.9929L15.5 16.9999H6.79601C6.37161 17 5.95819 16.8651 5.61555 16.6147C5.27291 16.3642 5.01881 16.0113 4.89001 15.6069L4.84701 15.4499L2.10701 3.57994L0.400009 2.29994C0.204906 2.15371 0.0699501 1.94124 0.0205219 1.70248C-0.0289063 1.46372 0.0105989 1.21513 0.131608 1.00345C0.252617 0.791781 0.446792 0.63161 0.677616 0.553065C0.90844 0.47452 1.16001 0.483012 1.38501 0.576944L1.49501 0.630944ZM16.867 4.99994H4.48701L6.08201 11.9059L13.682 11.2729C14.3679 11.2159 15.0134 10.9247 15.5101 10.4482C16.0068 9.9717 16.3245 9.33891 16.41 8.65594L16.867 4.99994Z" fill="white"/>
</svg>
