<svg width="64" height="64" viewBox="0 0 64 64" fill="none" xmlns="http://www.w3.org/2000/svg">
<path d="M32 0C49.6736 0 64 14.3264 64 32C64 49.6736 49.6736 64 32 64C14.3264 64 0 49.6736 0 32C0 14.3264 14.3264 0 32 0ZM43.312 20.4192L27.472 36.2592L20.688 29.472C20.3909 29.1747 20.0381 28.9388 19.6499 28.7778C19.2616 28.6168 18.8454 28.5339 18.4251 28.5338C17.5763 28.5335 16.7621 28.8704 16.1616 29.4704C15.5611 30.0704 15.2237 30.8844 15.2234 31.7333C15.2231 32.5821 15.56 33.3963 16.16 33.9968L24.9856 42.8224C25.3125 43.1494 25.7006 43.4089 26.1278 43.5859C26.5549 43.7629 27.0128 43.854 27.4752 43.854C27.9376 43.854 28.3955 43.7629 28.8226 43.5859C29.2498 43.4089 29.6379 43.1494 29.9648 42.8224L47.84 24.9472C48.4405 24.3467 48.7778 23.5324 48.7778 22.6832C48.7778 21.834 48.4405 21.0196 47.84 20.4192C47.2396 19.8187 46.4252 19.4814 45.576 19.4814C44.7268 19.4814 43.9125 19.8187 43.312 20.4192Z" fill="#1DCC1A"/>
</svg>
