<svg width="14" height="14" viewBox="0 0 14 14" fill="none" xmlns="http://www.w3.org/2000/svg">
<path d="M2.16248 4.83758L2.57496 5.25006C2.73589 5.41099 2.84495 5.61409 2.89137 5.8334H7.875C8.19718 5.8334 8.45833 6.09455 8.45833 6.41673C8.45833 6.7389 8.19718 7.00006 7.875 7.00006H2.91667V9.91673C2.91667 10.5611 3.439 11.0834 4.08333 11.0834H9.91667C10.561 11.0834 11.0833 10.5611 11.0833 9.91673V7.00006H10.7917C10.4695 7.00006 10.2083 6.7389 10.2083 6.41673C10.2083 6.09455 10.4695 5.8334 10.7917 5.8334H11.1086C11.155 5.61409 11.2641 5.41099 11.425 5.25006L11.8375 4.83758C12.0653 4.60978 12.4347 4.60978 12.6625 4.83758C12.8903 5.06539 12.8903 5.43474 12.6625 5.66254L12.25 6.07501V9.91673C12.25 11.2054 11.2053 12.2501 9.91667 12.2501H4.08333C2.79467 12.2501 1.75 11.2054 1.75 9.91673V6.07501L1.33752 5.66254C1.10972 5.43474 1.10972 5.06539 1.33752 4.83758C1.56533 4.60978 1.93467 4.60978 2.16248 4.83758ZM11.3442 2.39498C11.6324 2.53906 11.7491 2.88945 11.6051 3.1776L8.6884 9.01092C8.67942 9.02901 8.66956 9.04633 8.659 9.06302C8.40128 9.89543 7.62539 10.5001 6.70833 10.5001C5.58075 10.5001 4.66667 9.58597 4.66667 8.45839V8.16673C4.66667 7.84455 4.92784 7.58339 5.25 7.58339H8.09783L10.5616 2.65585C10.7057 2.3677 11.056 2.2509 11.3442 2.39498ZM7.53352 8.75006H5.88315C6.00326 9.08991 6.32736 9.33339 6.70833 9.33339C7.08931 9.33339 7.41341 9.08991 7.53352 8.75006ZM7.90691 1.2647C8.17495 1.4434 8.2474 1.80557 8.06867 2.07363L7.94296 2.26222C7.83113 2.42998 7.85324 2.65335 7.99581 2.79592C8.5316 3.33172 8.61472 4.17123 8.19443 4.80171L8.06872 4.99031C7.88999 5.25836 7.5278 5.3308 7.25976 5.15209C6.99172 4.97338 6.91927 4.61121 7.09794 4.34316L7.22371 4.15456C7.33553 3.98681 7.31342 3.76344 7.17086 3.62087C6.63507 3.08507 6.55194 2.24556 6.97223 1.61508L7.09794 1.42649C7.27667 1.15843 7.63887 1.08599 7.90691 1.2647ZM4.76463 1.42649C4.94334 1.15843 5.30551 1.08599 5.57357 1.2647C5.82247 1.43064 5.90272 1.75477 5.76983 2.01485L5.73536 2.07363L5.60963 2.26222C5.49779 2.42998 5.51991 2.65335 5.66247 2.79592C6.17148 3.30493 6.27195 4.08804 5.92037 4.70564L5.8611 4.80171L5.73536 4.99031C5.55666 5.25836 5.19448 5.3308 4.92642 5.15209C4.67751 4.98615 4.59728 4.66201 4.73017 4.40194L4.76464 4.34316L4.89036 4.15456C5.0022 3.98681 4.98009 3.76344 4.83752 3.62087C4.32851 3.11186 4.22803 2.32875 4.57962 1.71116L4.6389 1.61508L4.76463 1.42649Z" fill="#717171"/>
</svg>
