<svg width="64" height="65" viewBox="0 0 64 65" fill="none" xmlns="http://www.w3.org/2000/svg">
<path d="M58.954 56.8688C59.8974 56.8698 60.8048 57.2311 61.4908 57.8787C62.1769 58.5264 62.5897 59.4115 62.645 60.3533C62.7003 61.2952 62.3939 62.2225 61.7883 62.946C61.1828 63.6695 60.3239 64.1344 59.387 64.2459L58.954 64.2718H33.0434C32.1 64.2707 31.1926 63.9095 30.5066 63.2618C29.8205 62.6142 29.4077 61.729 29.3524 60.7872C29.2971 59.8454 29.6035 58.918 30.2091 58.1945C30.8146 57.4711 31.6735 57.0061 32.6104 56.8947L33.0434 56.8688H58.954ZM48.2048 2.70841C49.9 1.01424 52.1863 0.0438322 54.5826 0.00144881C56.9788 -0.0409346 59.2981 0.848017 61.0521 2.48118C62.8062 4.11434 63.8582 6.36432 63.9867 8.75751C64.1152 11.1507 63.3102 13.5004 61.7412 15.312L61.2896 15.7932L20.958 56.1285C20.6056 56.4814 20.2072 56.7852 19.7736 57.0316L19.3294 57.2537L5.24888 63.6573C2.25807 65.0158 -0.814178 62.1138 0.196331 59.123L0.344391 58.7528L6.74799 44.6686C6.95325 44.2157 7.21843 43.7924 7.53641 43.4101L7.86954 43.04L48.2048 2.70841Z" fill="#F0BE4B"/>
</svg>
